<svg width="175" height="24" viewBox="0 0 175 24" fill="none" xmlns="http://www.w3.org/2000/svg">
<g clip-path="url(#clip0_1739_3124)">
<mask id="mask0_1739_3124" style="mask-type:luminance" maskUnits="userSpaceOnUse" x="0" y="0" width="175" height="24">
<path d="M175 0H0V24H175V0Z" fill="white"/>
</mask>
<g mask="url(#mask0_1739_3124)">
<path fill-rule="evenodd" clip-rule="evenodd" d="M88.3431 6.04182C87.8206 2.71089 84.9484 0.169508 80.6975 0.0834789C76.5145 0.202965 73.2194 2.92532 73.0898 6.68354C73.2105 7.52694 73.0491 8.81675 74.8174 10.9066C75.0444 11.1743 75.4001 11.5127 75.8522 11.9084C76.7329 12.6788 77.9803 13.6781 79.3555 14.792C82.7858 17.5707 87.0122 21.1171 88.3326 24C90.4572 19.3445 100.083 12.8678 101.855 10.7588C103.628 8.64947 103.468 7.36126 103.59 6.5169C103.467 2.75964 100.177 0.0736046 95.9941 0C91.7432 0.132231 88.8665 2.70515 88.3431 6.04182Z" fill="#030C0C"/>
<path fill-rule="evenodd" clip-rule="evenodd" d="M102.139 4.625C102.139 4.625 102.2 4.62468 102.244 4.64156C102.266 5.2836 101.352 5.53086 100.994 5.97056C100.873 6.08208 100.702 6.11267 100.581 6.17703C100.559 6.19838 100.537 6.22833 100.537 6.27931L100.971 6.46412C100.911 6.48578 100.74 6.41855 100.581 6.38956C100.163 6.24745 99.7279 6.39434 99.3261 6.44755C99.2217 6.52466 99.1224 6.51255 99.0125 6.54282C99.0125 6.5597 99.0125 6.57691 99.0125 6.60654L100.206 6.71073L100.58 6.88725C100.993 6.77446 101.582 6.74132 101.956 6.94333C101.956 6.96468 102.038 7.02809 101.994 7.07493L100.954 7.09787C100.894 7.11093 100.85 7.12814 100.894 7.19154L101.642 7.42988C101.851 7.59015 102.016 7.83167 101.955 8.10441C101.641 8.16973 101.35 7.91642 101.075 7.72206C100.893 7.37029 100.729 7.16287 100.327 6.99049C100.244 7.24189 100.497 7.67841 100.221 7.90559C100.183 7.93554 100.139 7.96963 100.139 7.96963C100.1 7.96995 100.013 7.97027 99.9521 7.9537C99.5949 7.58569 100.244 7.225 100.14 6.85985C99.8489 6.55524 99.2433 6.66899 98.7648 6.62502C98.2913 6.70404 97.9774 6.94811 97.5759 6.98858C97.5154 7.06537 97.7023 7.05167 97.7243 7.11539C97.7243 7.14502 97.7628 7.20875 97.7848 7.25527C98.2194 7.36775 98.3732 7.71983 98.4938 8.07223C98.5158 8.1573 98.5158 8.22103 98.5158 8.26755C98.2627 8.29878 97.9765 8.11333 97.7841 7.93586C97.6851 7.80873 97.7237 7.6937 97.702 7.5962C97.6854 7.54522 97.6635 7.51973 97.5753 7.54554C97.5533 7.59684 97.4928 7.61436 97.4708 7.69497L96.7659 8.12002C96.601 8.00596 96.7662 7.76284 96.8876 7.65164C97.0582 7.52292 97.1407 7.48436 97.262 7.40725C97.3002 7.40694 97.3884 7.38941 97.4543 7.37189C97.5151 7.34194 97.5756 7.30752 97.6141 7.20971C97.6141 7.08194 97.3721 7.06632 97.2015 7.05453C96.8054 7.06951 96.4093 6.97392 96.0957 6.94588C95.4685 6.89809 94.8244 6.90159 94.406 7.18039C92.8481 8.12449 93.7982 10.0837 92.1795 11.0068C92.9439 11.6361 94.1927 12.0417 94.3624 13.074C95.1685 16.3438 89.5218 17.1783 90.3115 20.4566C90.3497 20.5373 90.3497 20.5838 90.3497 20.6351L90.2678 21.1882L90.1131 21.3587L89.7052 21.1462C89.6174 20.8575 89.5406 20.8775 89.3977 20.6402C88.6829 19.9341 87.891 19.3599 87.2753 18.6704C87.2259 18.6239 87.2039 18.5771 87.2039 18.5771L87.0225 18.4295L85.8536 16.4614C85.7623 16.3078 81.8362 16.8144 80.7463 15.9414L79.4686 14.9176L78.1571 13.8203L77.903 13.6383C77.8212 13.5698 77.7413 13.5004 77.6579 13.4334L77.3427 13.1808L77.1988 13.0712L76.7514 12.7L76.4773 12.4763L76.3687 12.3868L76.2726 12.2912L75.9634 12.0471L75.8045 11.7766C75.7415 11.6689 75.852 11.6275 75.9344 11.5972C77.3484 12.2188 79.3734 12.093 80.9424 11.5061C81.3993 11.3079 81.8123 10.987 82.0877 10.6324C81.3172 10.5559 80.4148 10.6244 79.6281 10.3526C78.6656 9.9413 77.3118 9.85081 76.2499 9.64816C75.6886 9.60451 75.2098 9.76861 74.687 9.78836C74.6484 9.77179 74.6484 9.75044 74.6484 9.70361C74.6873 9.65677 74.7532 9.57552 74.8745 9.55799C76.0245 9.48343 76.8339 9.06667 77.6047 8.42878C78.7283 7.39801 79.9452 6.42174 81.7559 6.13975C82.5318 6.11841 83.2196 6.13179 83.9458 6.33603C84.617 6.50681 85.0296 6.76395 85.5687 7.00355C86.465 7.6064 87.8019 8.02029 89.0732 7.67713C90.2787 7.57708 91.0495 6.98603 91.5949 6.32838C91.1819 6.34336 90.6537 6.26975 90.1972 6.18723C89.9494 6.25637 89.7622 6.3851 89.6358 6.43257C89.4317 6.676 89.8059 7.05676 89.4314 7.30115C89.3818 7.33971 89.3213 7.36966 89.3213 7.36966C89.1344 7.32409 89.2388 7.11093 89.2006 6.96659C89.0465 6.81015 88.9032 7.17657 88.6612 7.05453L88.6724 6.8248C88.722 6.7735 88.8211 6.77287 88.843 6.67919C88.5902 6.55301 88.2597 6.57181 88.0069 6.39466C87.6987 6.37936 87.4071 6.51287 87.1374 6.41218C87.1374 6.41218 87.0935 6.38255 87.0715 6.35323C87.1762 6.14007 87.6328 6.21813 87.864 6.21686C88.1996 6.28314 88.282 6.4399 88.5132 6.5237C88.5737 6.55333 88.5902 6.46794 88.5902 6.43831C88.4307 6.31149 88.4696 6.06902 88.2823 5.90843C88.2827 5.71279 88.2002 5.52193 88.3489 5.39353C88.4094 5.39321 88.4699 5.40563 88.5141 5.44387C88.9484 5.70929 88.3594 6.08654 88.722 6.43767C88.9038 6.53007 89.2175 6.52848 89.4321 6.43353C89.6578 6.28792 89.867 6.18914 90.0708 6.0773C90.1972 6.05946 89.9498 6.0311 90.0985 5.99223L89.554 5.51461C89.4935 5.45534 89.4935 5.38747 89.4496 5.32375C89.5543 5.21255 89.8237 5.35147 89.9504 5.38492C90.0714 5.46076 90.0988 5.48179 90.1373 5.5624C90.137 5.7026 90.137 5.89823 90.2634 6.04225C90.676 6.20157 91.2813 6.31309 91.7601 6.17863C92.1843 5.69144 93.0153 5.48274 93.8243 5.46139C94.6002 5.45725 94.803 6.08113 95.4526 6.18819C95.7824 6.33507 95.7436 6.82002 96.2001 6.86431C96.9156 7.01789 97.6144 6.92039 98.2035 6.70468C98.413 6.18914 98.4961 5.65703 99.1013 5.38588C99.2443 5.65289 99.0128 6.02823 98.7651 6.23789C98.5999 6.33667 98.4349 6.35037 98.3907 6.52912C98.8696 6.52657 99.6674 6.25 100.245 6.20029C100.515 6.13051 100.68 6.00211 100.895 5.93296L101.054 5.74497C100.873 5.5334 100.703 5.15169 100.973 4.84389C101.105 4.86014 101.165 4.91941 101.204 5.01723L101.203 5.45088C101.225 5.50186 101.247 5.53149 101.33 5.50122C101.429 5.14755 101.562 4.726 102.139 4.625Z" fill="#E4E4E4"/>
<path d="M170.533 16.4982V7.4581C170.533 7.02732 170.517 6.67906 170.485 6.41332C170.454 6.16161 170.411 5.98955 170.356 5.89683C170.276 5.76141 170.137 5.65849 169.941 5.58807C169.727 5.51097 169.447 5.47273 169.102 5.47273H168.949V5.32266V4.94891V4.79883H169.102H174.844H174.997V4.94891V5.32266V5.47273H174.844C174.176 5.47273 173.764 5.60687 173.607 5.87484L173.605 5.87643C173.545 5.97616 173.498 6.15332 173.465 6.40918C173.43 6.67587 173.413 7.02541 173.413 7.4581V16.4982C173.413 16.9437 173.429 17.304 173.461 17.58C173.492 17.8435 173.536 18.0251 173.592 18.1255C173.666 18.2513 173.801 18.3479 173.995 18.4145C174.209 18.4884 174.492 18.5253 174.844 18.5253H174.997V18.6751V19.0488V19.1989H174.844H169.102H168.949V19.0488V18.6751V18.5253H169.102C169.448 18.5253 169.727 18.4884 169.938 18.4145C170.13 18.3475 170.264 18.2507 170.339 18.1245C170.4 18.0168 170.447 17.832 170.481 17.5685C170.516 17.2919 170.533 16.9354 170.533 16.4982Z" fill="#030C0C"/>
<path d="M118.852 19.1989H115.714H115.608L115.571 19.1017L114.365 15.9891H108.806L107.647 19.0998L107.611 19.1989H107.504H104.422H104.199L104.28 18.995L109.867 4.89506L109.905 4.79883H110.009H113.087H113.191L113.229 4.89315L118.994 18.9934L119.078 19.1989H118.852ZM113.306 13.3062L111.529 8.66825L109.802 13.3062H113.306Z" fill="#030C0C"/>
<path d="M122.011 19.0992L116.863 4.99925L116.789 4.79883H117.007H120.155H120.265L120.3 4.90016L123.807 14.9156L127.171 4.90175L127.206 4.79883H127.316H130.411H130.628L130.555 4.99861L125.438 19.0986L125.401 19.1989H125.293H122.155H122.047L122.011 19.0992Z" fill="#030C0C"/>
<path d="M131.25 19.0488V4.94891V4.79883H131.403H142.054H142.207V4.94891V7.33161V7.48168H142.054H134.47V10.3127H141.511H141.664V10.4628V12.8455V12.9956H141.511H134.47V16.5161H142.335H142.488V16.6661V19.0488V19.1989H142.335H131.403H131.25V19.0488Z" fill="#030C0C"/>
<path d="M144.148 19.0488V4.94891V4.79883H144.301H150.421C151.193 4.79883 151.862 4.83102 152.427 4.89538C153 4.96038 153.466 5.0582 153.826 5.18883C154.192 5.32106 154.521 5.50491 154.813 5.74102C155.105 5.97648 155.36 6.26229 155.578 6.59812C155.795 6.93523 155.958 7.29624 156.067 7.68082C156.176 8.06477 156.231 8.47102 156.231 8.90053C156.231 9.44729 156.149 9.94722 155.985 10.4006C155.821 10.8563 155.574 11.2638 155.244 11.6232C154.914 11.9823 154.503 12.2748 154.011 12.5004C153.628 12.6763 153.197 12.8114 152.717 12.906C152.903 13.0239 153.079 13.1459 153.243 13.2718C153.509 13.4745 153.745 13.6857 153.953 13.9062C154.162 14.1264 154.406 14.43 154.684 14.8171C154.959 15.1989 155.27 15.6666 155.618 16.2194L157.373 18.9698L157.519 19.1989H157.244H153.77H153.688L153.643 19.1314L151.559 16.0528C151.185 15.5054 150.872 15.0619 150.619 14.7216C150.368 14.3835 150.174 14.1448 150.039 14.0056C149.908 13.8715 149.774 13.758 149.636 13.6659C149.503 13.5764 149.366 13.5076 149.226 13.4598C149.08 13.4107 148.891 13.3738 148.658 13.3489C148.421 13.3234 148.136 13.3107 147.805 13.3107H147.368V19.0488V19.1989H147.215H144.301H144.148V19.0488ZM147.368 10.7658H149.366C150.059 10.7658 150.619 10.7511 151.047 10.7228C151.471 10.6944 151.764 10.6536 151.926 10.6001C152.084 10.5472 152.225 10.4758 152.348 10.3857C152.469 10.2965 152.574 10.1881 152.662 10.0607L152.663 10.06C152.752 9.93256 152.818 9.78918 152.863 9.62955C152.908 9.46673 152.93 9.28479 152.93 9.08438C152.93 8.86134 152.9 8.66251 152.841 8.48759C152.783 8.31489 152.695 8.16291 152.579 8.02972C152.463 7.89844 152.323 7.79139 152.159 7.70854C151.991 7.62411 151.799 7.56452 151.582 7.52916C151.468 7.51354 151.237 7.50143 150.891 7.49347C150.554 7.4855 150.085 7.48168 149.483 7.48168H147.368V10.7658Z" fill="#030C0C"/>
<path d="M157.781 14.2462L160.515 13.9801L160.655 13.9664L160.68 14.1025C160.76 14.5364 160.879 14.9112 161.039 15.2275C161.195 15.5379 161.39 15.7912 161.625 15.9884C161.859 16.1857 162.136 16.3332 162.454 16.4323C162.777 16.5323 163.143 16.5824 163.552 16.5824C163.988 16.5824 164.369 16.5374 164.694 16.4479C165.011 16.3603 165.276 16.23 165.487 16.0569C165.7 15.8823 165.859 15.6953 165.963 15.4949C166.066 15.2989 166.117 15.0874 166.117 14.8605C166.117 14.7155 166.096 14.583 166.053 14.4619C166.011 14.3421 165.948 14.2322 165.864 14.1321L165.865 14.1318C165.781 14.0333 165.663 13.9393 165.51 13.8501C165.35 13.7571 165.156 13.6711 164.927 13.5924C164.769 13.5372 164.505 13.4608 164.135 13.3623C163.758 13.2619 163.282 13.1421 162.707 13.001C161.951 12.8155 161.307 12.6084 160.773 12.3797C160.233 12.148 159.806 11.8931 159.491 11.6143C159.05 11.2253 158.719 10.7926 158.498 10.3156C158.277 9.83797 158.166 9.31861 158.166 8.7575C158.166 8.39682 158.219 8.04601 158.323 7.70635C158.426 7.36733 158.582 7.0401 158.789 6.72561C158.998 6.40985 159.253 6.13201 159.554 5.89208C159.853 5.65311 160.197 5.45206 160.587 5.28797C160.974 5.12483 161.4 5.00279 161.865 4.92186C162.327 4.84093 162.829 4.80078 163.371 4.80078C164.253 4.80078 165.03 4.89733 165.699 5.09074C166.373 5.28542 166.937 5.57919 167.392 5.97206C167.848 6.36493 168.196 6.82311 168.435 7.34726C168.674 7.86949 168.804 8.45576 168.827 9.10736L168.833 9.25648L168.68 9.26157L165.868 9.35652L165.734 9.3613L165.712 9.23194C165.655 8.89483 165.566 8.60711 165.445 8.36814C165.327 8.13586 165.179 7.94978 165.001 7.8099C164.823 7.66971 164.596 7.56329 164.323 7.49159C164.043 7.41799 163.713 7.38103 163.335 7.38103C162.944 7.38103 162.596 7.42054 162.293 7.49924C161.996 7.57667 161.741 7.69233 161.529 7.84591C161.401 7.93799 161.305 8.0441 161.242 8.1639C161.18 8.28338 161.149 8.41976 161.149 8.57397C161.149 8.71258 161.178 8.84035 161.237 8.95665C161.296 9.07517 161.388 9.1851 161.51 9.28579L161.512 9.28674C161.674 9.42216 161.96 9.56299 162.371 9.70924C162.792 9.859 163.341 10.0123 164.017 10.17C164.699 10.3271 165.291 10.4876 165.795 10.6514C166.309 10.8181 166.733 10.9888 167.069 11.1619C167.407 11.3377 167.709 11.5445 167.973 11.7835C168.239 12.0231 168.467 12.2946 168.659 12.5998C168.852 12.9067 168.996 13.2479 169.092 13.6233C169.188 13.9967 169.235 14.4039 169.235 14.8449C169.235 15.2486 169.178 15.6408 169.063 16.0213C168.949 16.3991 168.777 16.7643 168.548 17.1167C168.318 17.471 168.041 17.7798 167.717 18.042C167.393 18.3045 167.022 18.5209 166.604 18.6917C166.19 18.8621 165.725 18.9896 165.208 19.0743C164.695 19.1588 164.133 19.2005 163.523 19.2005C162.631 19.2005 161.841 19.0995 161.152 18.8969C160.458 18.6926 159.868 18.3848 159.38 17.9735C158.894 17.5637 158.506 17.06 158.216 16.4632C157.928 15.8709 157.738 15.1871 157.644 14.4125L157.625 14.2612L157.781 14.2462Z" fill="#030C0C"/>
<path d="M67.7006 8.58417L67.6519 17.6482L67.4853 18.6694L67.4162 18.9893L67.3312 19.2974C67.3067 19.3946 67.2742 19.4592 67.2379 19.4997H63.6538C63.9095 19.2445 64.0556 18.8637 64.096 18.3491L64.1448 17.7453V7.68054C64.1448 7.30775 64.0352 7.02831 63.812 6.83395C63.5927 6.63927 63.3411 6.54209 63.0609 6.54209C62.306 6.54209 61.9287 6.92285 61.9287 7.68054V17.6969C61.9367 17.9117 61.9733 18.1102 62.0341 18.3004C62.0341 18.4059 62.0462 18.4992 62.0749 18.5881L62.1519 18.9408C62.1882 19.0906 62.2248 19.2123 62.2697 19.2974L62.363 19.4271C62.3793 19.4592 62.3993 19.4838 62.4156 19.4997H59.0021C58.9858 19.4755 58.9737 19.4592 58.9655 19.4513C58.933 19.4146 58.9088 19.3621 58.8843 19.2974L58.6814 18.8111L58.6082 18.5518L58.5149 18.3004L58.3971 17.6969C58.3487 17.4496 58.3242 17.3037 58.3242 17.2553V8.58417C58.3242 8.37738 58.3567 8.13841 58.4175 7.87108C58.4825 7.59961 58.5719 7.34439 58.6814 7.09713C59.4892 5.36699 60.9787 4.5 63.1421 4.5C64.1123 4.5 64.9891 4.76319 65.7807 5.29402C66.568 5.82485 67.1364 6.54209 67.4853 7.44157L67.6519 8.02498C67.6843 8.13427 67.7006 8.32067 67.7006 8.58417Z" fill="#030C0C"/>
<path d="M51.2066 4.5V16.4609C51.2066 16.769 51.3161 17.0122 51.5355 17.1903C51.7504 17.3687 51.986 17.4579 52.2296 17.4579C52.9441 17.4579 53.301 17.1256 53.301 16.4609V13.5152C53.301 13.1386 53.2685 12.7821 53.2036 12.4497C53.1469 12.235 53.0737 11.9269 52.9762 11.5219L52.9033 11.2259L52.81 10.9869H56.3901C56.4712 11.2421 56.5604 11.6516 56.6661 12.2229L56.7839 13.6127C56.7839 13.7058 56.7919 13.8313 56.804 13.9814V14.3704C56.804 14.8404 56.796 15.1724 56.7798 15.3671L56.7107 16.2583C56.2885 18.4179 54.8191 19.5 52.2984 19.5C50.8373 19.5 49.7372 19.176 48.9903 18.5275C48.2761 17.9037 47.7727 16.8662 47.4805 15.4155V4.5H51.2066Z" fill="#030C0C"/>
<path d="M44.0136 4.5V6.00743C44.0136 6.71637 43.5102 7.34439 42.5038 7.87937L41.9434 8.1792L41.4563 8.38981C41.1965 8.51121 40.7988 8.67339 40.2671 8.87603C40.0843 8.93275 39.573 9.11086 38.7327 9.41069C38.2743 9.56873 37.6247 9.81599 36.7845 10.1483C36.2041 10.4076 35.8064 10.6871 35.5953 10.9869C35.9726 10.8126 36.3785 10.7237 36.8049 10.7237C37.8358 10.7237 38.4608 11.1449 38.684 11.9877C38.9317 11.4731 39.2727 11.1166 39.707 10.9181C40.1413 10.7196 40.8313 10.6224 41.7772 10.6224C42.9706 10.6224 43.9324 10.8818 44.6507 11.4043C45.4585 12.004 45.8644 12.8792 45.8644 14.026V18.1586C45.8644 18.3249 45.8281 18.5234 45.759 18.7503C45.7345 18.8232 45.682 18.9367 45.6046 19.0906C45.5234 19.2448 45.4422 19.3824 45.3531 19.5H41.9679C42.0004 19.4108 42.0533 19.2527 42.1341 19.0259C42.1708 18.9045 42.2074 18.7869 42.2398 18.6693L42.3089 18.1831V14.026C42.3089 13.2845 42.0004 12.9117 41.3834 12.9117H41.3347C41.0507 12.9117 40.8233 13.0252 40.6568 13.252C40.4903 13.4747 40.4091 13.7341 40.4091 14.0298V16.1206H36.8049V14.0298C36.8049 13.6978 36.7278 13.4343 36.5693 13.2441C36.3827 13.0535 36.1878 12.9602 35.993 12.9602H35.8631C35.3396 12.9602 35.0757 13.3167 35.0757 14.026V18.2073C35.1731 18.7302 35.2785 19.1597 35.3922 19.5H31.8367L31.788 19.3461L31.6947 19.2043L31.6702 19.1068L31.646 19.0622C31.4145 18.6005 31.3008 18.1305 31.3008 17.6481V13.3291C31.3008 12.1579 31.7026 11.137 32.5021 10.2658C33.5413 9.14336 34.7672 8.32513 36.1757 7.81022L37.5069 7.34853C39.4431 6.86645 40.4091 6.20179 40.4091 5.35488V4.5H44.0136Z" fill="#030C0C"/>
<path d="M30.1291 8.79096V15.4359C30.1291 16.6719 29.6868 17.6685 28.7978 18.4304C27.9576 19.1435 26.9064 19.5 25.6481 19.5H25.5748C24.3248 19.5 23.2776 19.1393 22.4374 18.4179C21.5402 17.6602 21.0938 16.6677 21.0938 15.44V12.8875H24.6495V16.2666C24.6495 16.5705 24.7386 16.842 24.9214 17.0689C25.1042 17.2957 25.3475 17.4092 25.6481 17.4092H25.6968C26.3625 17.4092 26.6952 17.0284 26.6952 16.2583V7.85483C26.6952 7.46579 26.6099 7.18221 26.4396 7.0041C26.2689 6.82981 26.0499 6.74059 25.7859 6.74059H25.7171C25.4452 6.74059 25.2337 6.85402 25.0756 7.08917C24.9215 7.32017 24.8444 7.5754 24.8444 7.85483V9.77552H21.2157V8.77885C21.2157 7.53079 21.6499 6.49748 22.5226 5.68721C23.3788 4.89701 24.4385 4.5 25.6968 4.5C26.886 4.5 27.9211 4.92123 28.8059 5.76017C29.6869 6.5988 30.1291 7.61172 30.1291 8.79096Z" fill="#030C0C"/>
<path d="M15.5356 4.5C16.729 4.5 17.7154 4.81194 18.4986 5.43613C19.3551 6.10875 19.7814 7.02831 19.7814 8.1913C19.7814 8.7301 19.6719 9.24054 19.4487 9.72295C19.1847 10.2658 18.8317 10.6508 18.3932 10.8735L18.1659 10.9423L17.9306 10.991C18.2958 10.991 18.6448 11.1449 18.9816 11.4531C19.2901 11.7325 19.5012 12.0565 19.6149 12.4252L19.7327 12.8184C19.7652 12.9197 19.7814 13.0411 19.7814 13.1749V15.7478C19.7814 16.8825 19.3229 17.8024 18.4015 18.5154C17.553 19.1718 16.5424 19.5 15.3774 19.5C14.1067 19.5 13.0353 19.1393 12.1626 18.4179C11.217 17.6523 10.7461 16.6515 10.7461 15.4155V12.863H14.3506V16.2583C14.3506 17.0243 14.6792 17.4092 15.3366 17.4092H15.3854C16.0432 17.4092 16.3717 17.0243 16.3717 16.2583V12.863C16.3717 12.4822 16.3272 12.2229 16.2418 12.0769C16.1202 11.9026 15.8808 11.8176 15.5153 11.8176H14.9307V9.94567H15.5153C15.9133 9.94567 16.1689 9.7513 16.2864 9.3664L16.3717 9.20804V7.68054C16.3717 6.92285 16.0432 6.54209 15.3854 6.54209H15.3125C14.6712 6.54209 14.3506 6.92285 14.3506 7.68054V9.43523H11.0625V8.18716C11.0625 7.09713 11.5497 6.19765 12.5198 5.48456C13.4005 4.82819 14.4031 4.5 15.5356 4.5Z" fill="#030C0C"/>
<path d="M1.53434 4.5H5.28469V6.35155C5.28469 7.15003 5.85302 7.91569 6.98555 8.653L7.11545 8.75846L7.23294 8.83143C7.61469 9.06243 8.05726 9.43108 8.56446 9.94567C8.97455 10.3672 9.1815 10.9382 9.1815 11.6675V14.9092C9.1815 16.3316 8.76345 17.4174 7.92735 18.1669C7.09093 18.9125 6.13703 19.3499 5.06564 19.4755L4.86282 19.5H4.47311C3.42591 19.5 2.40291 19.0988 1.40443 18.3007C0.466764 17.551 0 16.4734 0 15.0714V12.863H3.72616V16.1165C3.72616 16.8987 4.03468 17.3199 4.65172 17.3849C4.89912 17.3849 5.12231 17.2795 5.3213 17.0689C5.52412 16.8621 5.62569 16.5422 5.62569 16.1165V11.6675C5.62569 10.9952 5.43083 10.4481 5.04144 10.0307C4.78959 9.7513 4.30245 9.40687 3.58001 8.99743C3.06453 8.70589 2.60191 8.38567 2.18768 8.04951C1.75339 7.68468 1.53434 7.11753 1.53434 6.35155V4.5Z" fill="#030C0C"/>
</g>
</g>
<defs>
<clipPath id="clip0_1739_3124">
<rect width="175" height="24" fill="white"/>
</clipPath>
</defs>
</svg>
