<svg width="108" height="24" viewBox="0 0 108 24" fill="none" xmlns="http://www.w3.org/2000/svg">
<path d="M3.40911 23.5564C3.0267 23.8596 2.54768 24.0162 2.05911 23.9978C1.09364 23.9978 0.404306 23.5467 0 22.6446L0.630885 22.301C0.955722 22.9777 1.42864 23.3217 2.04964 23.3217C2.65061 23.3217 3.17252 22.9877 3.17252 22.4681C3.17252 22.0267 2.80829 21.8009 1.85257 21.5756C1.13331 21.4184 0.768531 21.252 0.482803 20.9286C0.295386 20.71 0.193879 20.4312 0.197073 20.1438C0.194593 19.9263 0.244249 19.7115 0.341917 19.517C0.439585 19.3225 0.582449 19.154 0.758649 19.0255C1.11817 18.7363 1.56739 18.5802 2.0296 18.5841C2.91629 18.5841 3.5373 18.9858 3.89164 19.8007L3.26103 20.1436C2.98518 19.5552 2.57141 19.261 2.02946 19.261C1.75877 19.2532 1.49386 19.3399 1.2807 19.5062C1.18627 19.5712 1.10854 19.6574 1.05378 19.7579C0.999014 19.8584 0.968761 19.9702 0.965463 20.0845C0.965463 20.5163 1.22197 20.7027 2.19731 20.9083C2.82792 21.0456 3.29054 21.2617 3.57627 21.5562C3.69403 21.6673 3.78795 21.801 3.85235 21.9492C3.91674 22.0975 3.95028 22.2572 3.95093 22.4187C3.95537 22.6371 3.90874 22.8536 3.81471 23.0511C3.72068 23.2485 3.58183 23.4215 3.40911 23.5564Z" fill="#030C0C"/>
<path d="M4.39062 18.6719H5.20842L6.58807 23.0166H6.59768L8.02618 18.6719H8.79499L10.2334 23.0263H10.243L11.6325 18.6719H12.4305L10.6572 23.9088H9.7997L8.41031 19.6523H8.40042L7.0017 23.9091H6.15412L4.39062 18.6719Z" fill="#030C0C"/>
<path d="M13.7284 21.5265C13.7486 22.0134 13.9567 22.4737 14.3094 22.8116C14.4808 22.979 14.6843 23.1104 14.9077 23.198C15.1312 23.2856 15.37 23.3277 15.6101 23.3216C15.9591 23.3221 16.3011 23.2237 16.596 23.0378C16.8908 22.8519 17.1264 22.5862 17.2751 22.2719L17.8468 22.6445C17.6412 23.0558 17.3231 23.401 16.9292 23.6404C16.5353 23.8798 16.0815 24.0036 15.62 23.9977C15.2658 24.0053 14.9138 23.9395 14.5865 23.8044C14.2592 23.6694 13.9636 23.4682 13.7186 23.2134C13.468 22.9582 13.2709 22.6559 13.1389 22.3242C13.0069 21.9924 12.9426 21.6378 12.9498 21.281C12.9412 20.5787 13.206 19.9004 13.6885 19.3879C13.9153 19.1299 14.1959 18.9243 14.5108 18.7855C14.8258 18.6467 15.1674 18.578 15.5117 18.5844C16.3001 18.5844 16.9107 18.8394 17.3445 19.3396C17.7783 19.8397 17.9945 20.4773 17.9945 21.272C17.9977 21.3571 17.9944 21.4424 17.9846 21.5271L13.7284 21.5265ZM17.2165 20.8792C17.1078 19.8982 16.4969 19.2512 15.5117 19.2512C15.294 19.2493 15.078 19.2908 14.8766 19.3732C14.6752 19.4556 14.4924 19.5773 14.339 19.7311C14.012 20.0336 13.7997 20.4391 13.738 20.8792H17.2165Z" fill="#030C0C"/>
<path d="M19.7099 21.5255C19.7299 22.0124 19.938 22.4728 20.2908 22.8106C20.4623 22.978 20.6657 23.1094 20.8892 23.197C21.1126 23.2846 21.3515 23.3267 21.5915 23.3206C21.9406 23.3212 22.2826 23.2227 22.5775 23.0368C22.8724 22.8509 23.108 22.5852 23.2566 22.2709L23.8273 22.6435C23.6217 23.0549 23.3037 23.4001 22.9097 23.6395C22.5158 23.8789 22.0619 24.0027 21.6005 23.9967C21.2462 24.0043 20.8943 23.9385 20.567 23.8034C20.2396 23.6684 19.9441 23.4672 19.699 23.2124C19.4484 22.9572 19.2514 22.6549 19.1194 22.3232C18.9874 21.9914 18.9231 21.6368 18.9302 21.28C18.9219 20.5775 19.1872 19.8991 19.6704 19.3869C19.897 19.1287 20.1776 18.9229 20.4926 18.7839C20.8075 18.645 21.1491 18.5762 21.4936 18.5824C22.2817 18.5824 22.8926 18.8375 23.3261 19.3376C23.7596 19.8378 23.9763 20.4753 23.9763 21.27C23.9795 21.3552 23.9762 21.4404 23.9664 21.5251L19.7099 21.5255ZM23.1975 20.8782C23.0891 19.8972 22.4782 19.2502 21.493 19.2502C21.2752 19.2483 21.0592 19.2898 20.8578 19.3722C20.6564 19.4546 20.4735 19.5763 20.32 19.7301C19.9931 20.0327 19.7809 20.4381 19.7191 20.8782H23.1975Z" fill="#030C0C"/>
<path d="M26.3142 17.6819V18.6725H27.6934V19.339H26.3142V23.9096H25.5457V19.339H24.5703V18.6725H25.5457V17.7013C25.5457 16.5237 26.1859 15.8965 27.1614 15.8965C27.3593 15.8965 27.5559 15.9297 27.7427 15.9949V16.642C27.5638 16.589 27.3775 16.5656 27.191 16.5727C26.7181 16.5734 26.3142 16.868 26.3142 17.6819Z" fill="#030C0C"/>
<path d="M29.0847 22.5537V19.3466H28.1094V18.6703H29.0847V17.1602H29.8434V18.6703H31.1735V19.3466H29.8434V22.5344C29.8434 23.0247 30.1291 23.2699 30.7006 23.2699C30.8593 23.2763 31.0183 23.263 31.1738 23.2304V23.8677C30.9782 23.9222 30.7759 23.9488 30.5728 23.9468C29.577 23.9468 29.0847 23.4854 29.0847 22.5537Z" fill="#030C0C"/>
<path d="M0 11.5291V3.82139H1.99857V4.7614C2.10474 4.57201 2.24314 4.40241 2.4076 4.26015C2.57589 4.11421 2.76424 3.99291 2.96695 3.89994C3.17392 3.80495 3.39012 3.73132 3.61217 3.68021C3.82619 3.62976 4.04526 3.60364 4.26519 3.60235C4.75255 3.59094 5.23473 3.70403 5.66571 3.93083C6.05997 4.14547 6.37444 4.48061 6.5627 4.88678C6.818 4.4612 7.18917 4.11631 7.63324 3.89204C8.067 3.69334 8.54007 3.59424 9.01749 3.60207C9.37034 3.60141 9.72103 3.65688 10.0563 3.76638C10.3901 3.87446 10.6962 4.05364 10.9533 4.29146C11.2272 4.54796 11.442 4.86048 11.5831 5.20751C11.7499 5.62872 11.8304 6.07892 11.8197 6.53157V11.5291H9.78894V6.95482C9.80281 6.58094 9.68893 6.21343 9.46591 5.91228C9.2513 5.63621 8.90248 5.49795 8.41945 5.49748C8.22116 5.48705 8.0231 5.52186 7.84039 5.59925C7.65768 5.67664 7.49514 5.79456 7.36519 5.94401C7.11255 6.24428 6.97842 6.62588 6.98788 7.01744V11.5291H4.91041V6.95482C4.9243 6.57972 4.80742 6.21138 4.57958 5.91228C4.35959 5.63593 4.01332 5.49776 3.54078 5.49776C3.34081 5.48616 3.14079 5.51958 2.95559 5.59554C2.77039 5.67151 2.60477 5.78806 2.47107 5.93653C2.21591 6.23824 2.08134 6.62295 2.09307 7.01717V11.5291H0Z" fill="#030C0C"/>
<path d="M13.1219 9.42885C13.1136 9.12754 13.1696 8.82791 13.2862 8.54971C13.4027 8.27152 13.5772 8.0211 13.7982 7.81495C14.0113 7.61482 14.2594 7.45518 14.5302 7.34391C14.8211 7.22593 15.1246 7.14183 15.4349 7.09328L17.3389 6.81176C17.5101 6.80296 17.6725 6.73347 17.7967 6.61586C17.88 6.5174 17.9245 6.39213 17.9219 6.26341C17.9221 6.12976 17.8935 5.99764 17.838 5.87593C17.7825 5.75421 17.7015 5.64574 17.6004 5.5578C17.3848 5.36033 17.0565 5.2616 16.6155 5.2616C16.1538 5.2616 15.7998 5.38703 15.5534 5.63788C15.3146 5.87208 15.1669 6.18303 15.1367 6.51542L13.2792 6.1232C13.3156 5.80514 13.4117 5.49674 13.5627 5.21408C13.7252 4.90539 13.9437 4.62929 14.2072 4.39972C14.5053 4.14571 14.8466 3.94673 15.215 3.81216C15.6592 3.65319 16.1288 3.57629 16.6007 3.58522C17.1303 3.57273 17.6578 3.6548 18.1583 3.82754C18.5492 3.96512 18.9063 4.18408 19.2056 4.46982C19.4697 4.73144 19.6691 5.05059 19.788 5.40208C19.9085 5.76075 19.9696 6.13653 19.9689 6.51472V10.3057C19.9689 10.5146 19.9795 10.7367 20.0007 10.9719C20.0215 11.2064 20.0424 11.3921 20.0626 11.5279H18.1422C18.1157 11.3854 18.0976 11.2415 18.088 11.0969C18.071 10.9142 18.0639 10.7506 18.0639 10.6034C17.8402 10.9292 17.5472 11.202 17.2056 11.4023C16.7727 11.6474 16.2795 11.7668 15.7818 11.747C15.4027 11.7527 15.026 11.6864 14.6719 11.5515C14.3613 11.4331 14.0757 11.2579 13.8299 11.0348C13.6049 10.8282 13.4253 10.5775 13.3024 10.2985C13.1822 10.0244 13.1206 9.72845 13.1215 9.4294M16.2223 10.1967C16.4378 10.1974 16.6524 10.1683 16.8599 10.1103C17.0618 10.0549 17.2477 9.95298 17.4027 9.81275C17.5684 9.66074 17.6974 9.47331 17.78 9.26453C17.883 8.99201 17.9311 8.70199 17.9218 8.41097V8.06558L16.175 8.33158C15.9246 8.36464 15.6879 8.46488 15.4903 8.62155C15.3952 8.70677 15.321 8.81249 15.2734 8.93064C15.2257 9.04878 15.2058 9.17622 15.2152 9.30319C15.2158 9.53398 15.306 9.75561 15.467 9.92165C15.566 10.0185 15.6847 10.0932 15.8151 10.1405C15.9455 10.1879 16.0846 10.2068 16.223 10.1961" fill="#030C0C"/>
<path d="M26.0786 7.06298L29.2422 11.5277H26.6766L24.6309 8.58294L23.7648 9.49137V11.528H21.6719V0.185547H23.7649V6.6867L26.4405 3.82051H29.1787L26.0786 7.06298Z" fill="#030C0C"/>
<path d="M29.8792 1.30076C29.8754 1.12918 29.9069 0.958635 29.9717 0.799634C30.0366 0.640633 30.1336 0.496548 30.2565 0.37626C30.5002 0.13526 30.8298 0 31.1733 0C31.5168 0 31.8463 0.13526 32.09 0.37626C32.211 0.497679 32.3061 0.642129 32.3697 0.800975C32.4333 0.959821 32.4641 1.1298 32.4602 1.30076C32.4568 1.55344 32.3787 1.79951 32.2356 2.00823C32.0925 2.21695 31.8907 2.37907 31.6556 2.47433C31.4205 2.5696 31.1624 2.59378 30.9135 2.54387C30.6647 2.49395 30.4361 2.37215 30.2564 2.19367C30.1356 2.07835 30.0398 1.93963 29.975 1.78607C29.9101 1.63251 29.8776 1.46735 29.8792 1.30076ZM30.1309 3.82308H32.2239V11.5309H30.131L30.1309 3.82308Z" fill="#030C0C"/>
<path d="M36.1239 11.5293H34.0312V3.82135H36.0615V4.7773C36.2907 4.39075 36.6343 4.08422 37.0454 3.89976C37.4368 3.72045 37.8615 3.62435 38.2923 3.61757C38.7231 3.6108 39.1506 3.6935 39.5475 3.86041C39.8829 4.01067 40.181 4.2326 40.4205 4.51046C40.6579 4.79489 40.8324 5.12596 40.9326 5.48207C41.0442 5.86911 41.0998 6.27003 41.0976 6.67271V11.5293H39.004V7.03306C39.0183 6.64004 38.8991 6.25369 38.6655 5.93649C38.4402 5.64425 38.0756 5.498 37.5717 5.49772C37.3696 5.48659 37.1677 5.52255 36.982 5.60273C36.7963 5.68292 36.632 5.80512 36.502 5.95962C36.2453 6.28204 36.1114 6.68446 36.124 7.09568L36.1239 11.5293Z" fill="#030C0C"/>
<path d="M44.1975 11.4495C44.2598 11.8575 44.4664 12.2299 44.78 12.4998C45.1248 12.7817 45.5621 12.9267 46.0079 12.907C46.6686 12.907 47.1773 12.7373 47.5339 12.3981C47.8906 12.0588 48.069 11.5132 48.0692 10.7611V10.1971C47.8722 10.4836 47.6075 10.7177 47.2984 10.8787C46.8712 11.0984 46.3938 11.2035 45.9134 11.1835C45.4216 11.1881 44.9341 11.0922 44.4811 10.9018C44.0507 10.7215 43.6622 10.4548 43.3399 10.1184C43.0145 9.77604 42.7581 9.37477 42.5845 8.93631C42.3968 8.45986 42.3031 7.95181 42.3088 7.44004C42.3058 6.94448 42.3968 6.4528 42.577 5.99087C42.7472 5.54943 42.998 5.14316 43.3168 4.79261C43.6338 4.44613 44.0193 4.16864 44.4492 3.97756C44.9102 3.7751 45.4094 3.67361 45.9132 3.67997C46.5322 3.67997 47.0199 3.78974 47.3765 4.00929C47.6834 4.17922 47.9389 4.42801 48.1162 4.72971V3.82087H50.1316V10.6983C50.1334 11.2159 50.0562 11.7308 49.9027 12.2253C49.757 12.6987 49.5131 13.1363 49.1869 13.51C48.8389 13.8971 48.4086 14.2022 47.9274 14.403C47.3384 14.6416 46.7063 14.7563 46.0706 14.7399C45.5761 14.7461 45.084 14.6692 44.6151 14.5124C44.2029 14.3742 43.8171 14.1677 43.4739 13.9017C43.1575 13.656 42.8904 13.3531 42.6868 13.0088C42.4926 12.6844 42.3641 12.3252 42.3088 11.9516L44.1975 11.4495ZM46.2751 9.39821C46.5194 9.40655 46.7628 9.36339 46.9892 9.27157C47.2156 9.17974 47.42 9.04132 47.5889 8.86537C47.9297 8.5107 48.1004 8.03545 48.1009 7.43962C48.1015 6.84379 47.9231 6.37136 47.5657 6.02232C47.3974 5.85249 47.1962 5.71839 46.9744 5.62814C46.7526 5.53789 46.5147 5.49336 46.2751 5.49724C46.0248 5.49511 45.7763 5.54039 45.543 5.63066C45.3203 5.71744 45.1189 5.85103 44.9528 6.02232C44.7815 6.20014 44.6479 6.41047 44.56 6.64078C44.4628 6.89585 44.4147 7.16684 44.4182 7.43962C44.4182 8.0457 44.5912 8.52354 44.9372 8.87313C45.1118 9.04766 45.3208 9.18439 45.551 9.27475C45.7812 9.36511 46.0276 9.40714 46.2749 9.39821" fill="#030C0C"/>
<path d="M57.2761 8.99017C57.2995 9.29829 57.4337 9.58767 57.6541 9.80522C57.8842 10.0454 58.2302 10.1654 58.6921 10.1654C59.0384 10.1654 59.2956 10.0896 59.4637 9.93795C59.5426 9.87156 59.6061 9.78881 59.6496 9.69549C59.693 9.60216 59.7155 9.50051 59.7155 9.39763C59.7164 9.31199 59.7002 9.22702 59.6678 9.1477C59.6353 9.06838 59.5873 8.99632 59.5265 8.93573C59.3445 8.77831 59.1202 8.67749 58.8812 8.64575L57.8587 8.41023C57.1034 8.24398 56.5524 7.95428 56.2056 7.54115C55.864 7.14144 55.6796 6.63206 55.6865 6.10736C55.6853 5.76863 55.7605 5.43396 55.9065 5.128C56.0514 4.82307 56.2579 4.55114 56.513 4.32916C56.7827 4.09685 57.0917 3.91392 57.4255 3.78884C57.7949 3.64991 58.1871 3.58089 58.582 3.58532C59.054 3.57271 59.524 3.64963 59.9671 3.81197C60.3087 3.94099 60.6216 4.13538 60.8882 4.38416C61.1081 4.59206 61.2868 4.83927 61.4149 5.1129C61.52 5.33292 61.5891 5.56829 61.6194 5.81005L59.8726 6.20171C59.85 6.08121 59.8158 5.96317 59.7703 5.84925C59.7187 5.72241 59.6412 5.60766 59.5426 5.51232C59.4316 5.40455 59.3005 5.31957 59.1565 5.26225C58.9784 5.19474 58.7886 5.16278 58.598 5.16818C58.3464 5.16151 58.0997 5.23859 57.897 5.38721C57.8075 5.44825 57.7343 5.53006 57.6837 5.62558C57.6331 5.72109 57.6066 5.82744 57.6065 5.93543C57.6032 6.02107 57.6192 6.10637 57.6532 6.18508C57.6872 6.2638 57.7385 6.33395 57.8033 6.39041C57.9497 6.51244 58.1262 6.59336 58.3145 6.62482L59.4161 6.86034C60.1822 7.0169 60.7567 7.30941 61.1396 7.73788C61.5137 8.14349 61.7189 8.67551 61.7136 9.22611C61.7127 9.54269 61.6513 9.8562 61.5327 10.1499C61.4077 10.4587 61.2168 10.7368 60.9733 10.965C60.7002 11.2186 60.3793 11.4157 60.029 11.5448C59.6057 11.6986 59.1574 11.7728 58.7068 11.7638C58.2019 11.7786 57.6989 11.6934 57.2273 11.5132C56.8672 11.3706 56.5364 11.1636 56.2512 10.9025C56.015 10.6835 55.8251 10.4197 55.6927 10.1266C55.5835 9.8911 55.5119 9.64004 55.4805 9.38253L57.2761 8.99017Z" fill="#030C0C"/>
<path d="M66.5568 5.51033C66.2958 5.50816 66.0367 5.5561 65.7939 5.65151C65.5593 5.74424 65.3473 5.88565 65.1719 6.06631C64.9853 6.26241 64.8408 6.49435 64.7474 6.74794C64.6378 7.04375 64.5843 7.35721 64.5894 7.67244C64.5843 7.98745 64.6378 8.30069 64.7474 8.59625C64.8425 8.8531 64.9897 9.08775 65.1797 9.28564C65.3571 9.46965 65.5717 9.61397 65.8095 9.70903C66.0523 9.80439 66.3114 9.85232 66.5724 9.85021C66.8111 9.85427 67.0486 9.81425 67.2726 9.73217C67.4649 9.66178 67.6433 9.55865 67.8001 9.42737C67.9422 9.30834 68.062 9.16529 68.1542 9.00482C68.2375 8.8614 68.3036 8.70868 68.351 8.54984L70.1922 9.16137C70.1033 9.49677 69.9628 9.81644 69.7756 10.109C69.574 10.4249 69.3214 10.7054 69.028 10.9394C68.706 11.1945 68.3444 11.3957 67.9575 11.5352C67.5131 11.6922 67.044 11.769 66.5724 11.7618C66.025 11.7657 65.4823 11.6621 64.9751 11.457C64.4894 11.2617 64.048 10.9715 63.6769 10.6035C63.3063 10.2332 63.0123 9.79411 62.8116 9.31113C62.597 8.7921 62.4898 8.23533 62.4964 7.67411C62.4902 7.1109 62.5947 6.55193 62.804 6.02863C62.9965 5.54506 63.2856 5.10542 63.6538 4.73629C64.0185 4.37353 64.4514 4.08576 64.9278 3.88938C65.8836 3.51093 66.9435 3.48333 67.9178 3.81151C68.3064 3.94864 68.6705 4.14677 68.9962 4.39838C69.2911 4.62845 69.5417 4.9098 69.7359 5.22881C69.9179 5.52611 70.0557 5.84811 70.1449 6.18476L68.2726 6.81084C68.1693 6.47282 67.9827 6.16588 67.7298 5.91793C67.4618 5.64648 67.0708 5.51075 66.557 5.51075" fill="#030C0C"/>
<path d="M71.0941 1.30076C71.0902 1.12918 71.1217 0.958635 71.1866 0.799634C71.2515 0.640633 71.3484 0.496548 71.4714 0.37626C71.7151 0.13526 72.0446 0 72.3881 0C72.7316 0 73.0612 0.13526 73.3049 0.37626C73.4259 0.497668 73.521 0.642112 73.5846 0.800959C73.6483 0.959806 73.6791 1.12979 73.6752 1.30076C73.6718 1.55344 73.5936 1.79951 73.4505 2.00823C73.3074 2.21695 73.1057 2.37907 72.8706 2.47433C72.6355 2.5696 72.3774 2.59378 72.1285 2.54387C71.8796 2.49395 71.6511 2.37215 71.4714 2.19367C71.3506 2.07835 71.2548 1.93963 71.1899 1.78607C71.125 1.63251 71.0924 1.46735 71.0941 1.30076ZM71.3458 3.82308H73.4389V11.5309H71.3458V3.82308Z" fill="#030C0C"/>
<path d="M82.2414 9.32124C82.1451 9.65945 81.9935 9.9796 81.7928 10.2689C81.5881 10.5665 81.3356 10.8287 81.0453 11.0447C80.7326 11.2735 80.3848 11.4506 80.0154 11.5691C79.5959 11.7039 79.1572 11.7701 78.7164 11.765C78.1951 11.7676 77.6778 11.6748 77.1903 11.4912C76.7138 11.3127 76.2797 11.0378 75.9153 10.6839C75.5381 10.3144 75.2408 9.87197 75.0416 9.38386C74.819 8.83134 74.7095 8.24018 74.7194 7.645C74.7112 7.07095 74.8181 6.50104 75.0339 5.96862C75.2274 5.49197 75.5136 5.05802 75.8759 4.69167C76.2255 4.34375 76.6399 4.06712 77.0959 3.87731C77.5487 3.6859 78.0356 3.58746 78.5275 3.58789C79.7337 3.58789 80.6725 3.94312 81.344 4.65357C82.0155 5.36402 82.3514 6.34052 82.3518 7.58307C82.3518 7.72951 82.3455 7.86764 82.3355 7.99787C82.3255 8.1281 82.32 8.20458 82.32 8.22536H76.7803C76.7889 8.46808 76.8506 8.70601 76.9612 8.92251C77.1765 9.34832 77.5444 9.67823 77.9922 9.84701C78.2284 9.93653 78.4792 9.98149 78.7319 9.97959C79.2246 9.97959 79.6101 9.8701 79.8885 9.65111C80.1664 9.43157 80.3764 9.13832 80.4942 8.80516L82.2414 9.32124ZM80.2902 6.79891C80.2791 6.60876 80.2394 6.42134 80.1724 6.24294C80.1038 6.06028 79.9962 5.89457 79.8572 5.75721C79.7036 5.60838 79.522 5.49123 79.3227 5.41251C79.0794 5.31864 78.8199 5.27331 78.5589 5.27909C78.3104 5.27422 78.0636 5.32235 77.8352 5.42027C77.6363 5.50691 77.4549 5.62898 77.3 5.78048C77.1578 5.92009 77.0431 6.08481 76.9615 6.26621C76.8852 6.43442 76.8398 6.61489 76.8275 6.79905L80.2902 6.79891Z" fill="#030C0C"/>
<path d="M85.7806 11.5293H83.6875V3.82135H85.7178V4.7773C85.9469 4.39073 86.2905 4.0842 86.7015 3.89976C87.0929 3.72045 87.5176 3.62435 87.9484 3.61757C88.3792 3.6108 88.8067 3.6935 89.2036 3.86041C89.539 4.01067 89.8371 4.2326 90.0767 4.51046C90.314 4.79521 90.4884 5.12662 90.5883 5.48304C90.6999 5.87008 90.7555 6.271 90.7533 6.67368V11.5293H88.6607V7.03306C88.675 6.64004 88.5558 6.25369 88.3222 5.93649C88.0968 5.64425 87.7322 5.498 87.2284 5.49772C87.0263 5.48659 86.8244 5.52255 86.6387 5.60273C86.453 5.68292 86.2886 5.80512 86.1587 5.95962C85.902 6.28204 85.7681 6.68446 85.7807 7.09568L85.7806 11.5293Z" fill="#030C0C"/>
<path d="M96.057 5.51313C95.7959 5.51096 95.5369 5.55889 95.294 5.65431C95.0594 5.74704 94.8474 5.88844 94.672 6.06911C94.4854 6.2652 94.341 6.49715 94.2475 6.75074C94.1379 7.04654 94.0843 7.36 94.0894 7.67524C94.0843 7.99026 94.1379 8.3035 94.2475 8.59905C94.3427 8.8559 94.4898 9.09055 94.6798 9.28844C94.8572 9.47245 95.0719 9.61677 95.3096 9.71183C95.5525 9.80719 95.8115 9.85512 96.0726 9.85301C96.3113 9.85709 96.5488 9.81707 96.7729 9.73497C96.9651 9.66458 97.1436 9.56144 97.3004 9.43017C97.4424 9.31114 97.5623 9.16809 97.6544 9.00761C97.7377 8.86423 97.8037 8.71156 97.851 8.55278L99.6922 9.16431C99.6033 9.49971 99.4628 9.81938 99.2756 10.1119C99.074 10.4278 98.8214 10.7084 98.528 10.9424C98.206 11.1974 97.8444 11.3986 97.4575 11.5381C97.0131 11.6952 96.544 11.7719 96.0724 11.7648C95.525 11.7686 94.9823 11.665 94.4751 11.46C93.9894 11.2646 93.548 10.9744 93.1769 10.6064C92.8063 10.2361 92.5123 9.79705 92.3116 9.31407C92.097 8.79504 91.9898 8.23827 91.9964 7.67704C91.9902 7.11384 92.0947 6.55487 92.304 6.03156C92.4965 5.548 92.7856 5.10835 93.1538 4.73923C93.5187 4.37678 93.9517 4.08934 94.4281 3.89328C95.3839 3.51484 96.4437 3.48724 97.4181 3.81542C97.8067 3.95255 98.1707 4.15067 98.4964 4.40229C98.7914 4.63235 99.042 4.91371 99.2362 5.23272C99.4182 5.53002 99.556 5.85202 99.6452 6.18867L97.7729 6.81475C97.6695 6.47673 97.4829 6.16979 97.2301 5.92184C96.9618 5.64937 96.5708 5.51313 96.057 5.51313Z" fill="#030C0C"/>
<path d="M107.891 9.32124C107.794 9.65945 107.643 9.9796 107.442 10.2689C107.238 10.5665 106.985 10.8287 106.695 11.0447C106.382 11.2735 106.034 11.4506 105.665 11.5691C105.245 11.7039 104.807 11.7701 104.366 11.765C103.844 11.7677 103.327 11.6749 102.839 11.4912C102.362 11.3127 101.928 11.0378 101.564 10.6839C101.187 10.3144 100.889 9.87197 100.69 9.38386C100.467 8.83134 100.358 8.24018 100.368 7.645C100.36 7.07095 100.467 6.50104 100.682 5.96862C100.876 5.49197 101.162 5.05802 101.524 4.69167C101.874 4.34375 102.288 4.06712 102.744 3.87731C103.197 3.68581 103.684 3.58737 104.177 3.58789C105.383 3.58789 106.322 3.94312 106.993 4.65357C107.665 5.36402 108.001 6.34052 108.001 7.58307C108.001 7.72951 107.995 7.86764 107.985 7.99787C107.974 8.1281 107.969 8.20458 107.969 8.22536H102.429C102.438 8.46808 102.499 8.706 102.61 8.92251C102.825 9.34832 103.193 9.67824 103.641 9.84701C103.877 9.93653 104.128 9.98149 104.381 9.97959C104.873 9.97959 105.259 9.8701 105.537 9.65111C105.815 9.43157 106.025 9.13832 106.143 8.80516L107.891 9.32124ZM105.94 6.79891C105.929 6.60876 105.889 6.42134 105.822 6.24294C105.753 6.06028 105.646 5.89457 105.507 5.75721C105.353 5.60839 105.171 5.49124 104.972 5.41251C104.729 5.31865 104.469 5.27331 104.208 5.27909C103.96 5.27421 103.713 5.32235 103.485 5.42027C103.286 5.50691 103.104 5.62898 102.949 5.78048C102.807 5.92009 102.692 6.0848 102.611 6.26621C102.535 6.43442 102.489 6.61489 102.477 6.79905L105.94 6.79891Z" fill="#030C0C"/>
</svg>
